STARTFONT 2.1
FONT -Adobe-ITC Bookman-Light-I-Normal--19-140-100-100-P-105-ISO8859-1
SIZE 14 100 100
FONTBOUNDINGBOX 27 19 -5 -5

STARTPROPERTIES 26
_DEC_DEVICE_FONTNAMES "PS=Bookman-LightItalic"
FONTNAME_REGISTRY ""
FAMILY_NAME "ITC Bookman"
FOUNDRY "Adobe"
WEIGHT_NAME "Light"
SLANT "I"
SETWIDTH_NAME "Normal"
ADD_STYLE_NAME ""
PIXEL_SIZE 19
POINT_SIZE 140
RESOLUTION_X 100
RESOLUTION_Y 100
SPACING "P"
AVERAGE_WIDTH 105
CHARSET_REGISTRY "ISO8859"
CHARSET_ENCODING "1"
CHARSET_COLLECTIONS "ASCII ISO8859-1 ADOBE-STANDARD"
FULL_NAME "ITC Bookman Light Italic"
COPYRIGHT "Copyright (c) 1991 Adobe Systems, Inc."
CAP_HEIGHT 13
X_HEIGHT 9
WEIGHT 10
QUAD_WIDTH 13
DEFAULT_CHAR 0
FONT_DESCENT 5
FONT_ASCENT 14
ENDPROPERTIES

CHARS 190

STARTCHAR space
ENCODING 32
SWIDTH 312 0
DWIDTH 6 0
BBX 1 1 0 0
BITMAP
00
ENDCHAR

STARTCHAR exclam
ENCODING 33
SWIDTH 329 0
DWIDTH 6 0
BBX 5 13 0 0
BITMAP
18
18
18
30
30
30
60
60
60
40
00
C0
C0
ENDCHAR

STARTCHAR quotedbl
ENCODING 34
SWIDTH 364 0
DWIDTH 7 0
BBX 5 5 1 8
BITMAP
48
48
48
90
90
ENDCHAR

STARTCHAR numbersign
ENCODING 35
SWIDTH 613 0
DWIDTH 11 0
BBX 10 13 0 0
BITMAP
0900
0900
0900
0900
7FC0
1200
1200
1200
FF80
2400
2400
2400
2400
ENDCHAR

STARTCHAR dollar
ENCODING 36
SWIDTH 613 0
DWIDTH 11 0
BBX 9 17 1 -3
BITMAP
0200
0600
1F00
3580
6580
6C00
6800
3800
1E00
0B00
DB00
D300
D600
7C00
3000
2000
2000
ENDCHAR

STARTCHAR percent
ENCODING 37
SWIDTH 795 0
DWIDTH 15 0
BBX 14 13 0 0
BITMAP
3810
6C30
C460
C4C0
8C80
8DB8
DB6C
76C4
04C4
0C8C
188C
30D8
2070
ENDCHAR

STARTCHAR ampersand
ENCODING 38
SWIDTH 829 0
DWIDTH 16 0
BBX 15 13 0 0
BITMAP
0F80
1CC0
18C0
18C0
0980
1E00
7E30
E330
C190
C0E0
C0E6
61B6
3F3C
ENDCHAR

STARTCHAR quoteright
ENCODING 39
SWIDTH 272 0
DWIDTH 5 0
BBX 2 4 2 9
BITMAP
C0
C0
40
80
ENDCHAR

STARTCHAR parenleft
ENCODING 40
SWIDTH 279 0
DWIDTH 6 0
BBX 6 17 1 -4
BITMAP
0C
18
30
30
60
60
60
C0
C0
C0
C0
C0
C0
C0
60
60
30
ENDCHAR

STARTCHAR parenright
ENCODING 41
SWIDTH 279 0
DWIDTH 6 0
BBX 6 17 -1 -4
BITMAP
18
18
0C
0C
0C
0C
0C
0C
0C
0C
18
18
18
30
30
60
C0
ENDCHAR

STARTCHAR asterisk
ENCODING 42
SWIDTH 447 0
DWIDTH 8 0
BBX 7 7 1 6
BITMAP
08
5A
7E
38
FC
B4
20
ENDCHAR

STARTCHAR plus
ENCODING 43
SWIDTH 613 0
DWIDTH 11 0
BBX 10 9 0 0
BITMAP
0C00
0C00
0C00
FFC0
FFC0
0C00
0C00
0C00
0C00
ENDCHAR

STARTCHAR comma
ENCODING 44
SWIDTH 306 0
DWIDTH 6 0
BBX 2 4 1 -2
BITMAP
C0
C0
40
80
ENDCHAR

STARTCHAR minus
ENCODING 45
SWIDTH 606 0
DWIDTH 11 0
BBX 9 2 1 4
BITMAP
FF80
FF80
ENDCHAR

STARTCHAR period
ENCODING 46
SWIDTH 306 0
DWIDTH 6 0
BBX 2 2 1 0
BITMAP
C0
C0
ENDCHAR

STARTCHAR slash
ENCODING 47
SWIDTH 393 0
DWIDTH 7 0
BBX 9 15 -1 -2
BITMAP
0180
0100
0300
0200
0600
0400
0C00
0800
1800
1000
3000
2000
6000
4000
C000
ENDCHAR

STARTCHAR zero
ENCODING 48
SWIDTH 613 0
DWIDTH 11 0
BBX 10 13 0 0
BITMAP
0F00
3980
30C0
60C0
60C0
60C0
C0C0
C180
C180
C180
E300
6700
3C00
ENDCHAR

STARTCHAR one
ENCODING 49
SWIDTH 613 0
DWIDTH 11 0
BBX 6 13 1 0
BITMAP
1C
3C
0C
0C
18
18
18
18
30
30
30
70
FC
ENDCHAR

STARTCHAR two
ENCODING 50
SWIDTH 616 0
DWIDTH 11 0
BBX 10 13 0 0
BITMAP
0F80
3DC0
70C0
60C0
00C0
01C0
0180
0300
0600
0C00
3840
F7C0
FF80
ENDCHAR

STARTCHAR three
ENCODING 51
SWIDTH 613 0
DWIDTH 11 0
BBX 10 13 0 0
BITMAP
0F80
39C0
30C0
00C0
0180
0E00
0F80
01C0
00C0
C0C0
C1C0
E380
3F00
ENDCHAR

STARTCHAR four
ENCODING 52
SWIDTH 613 0
DWIDTH 11 0
BBX 10 13 0 0
BITMAP
0180
0380
0680
0D80
1980
3300
6300
C300
FFC0
7F80
0600
0600
1F00
ENDCHAR

STARTCHAR five
ENCODING 53
SWIDTH 613 0
DWIDTH 11 0
BBX 10 13 0 0
BITMAP
1FC0
3F80
3000
2000
6F00
7B80
61C0
00C0
00C0
C1C0
C180
E700
7E00
ENDCHAR

STARTCHAR six
ENCODING 54
SWIDTH 613 0
DWIDTH 11 0
BBX 10 13 0 0
BITMAP
0F80
39C0
30C0
6000
6000
CE00
DB00
E180
C180
C180
C380
6700
3E00
ENDCHAR

STARTCHAR seven
ENCODING 55
SWIDTH 613 0
DWIDTH 11 0
BBX 10 13 0 0
BITMAP
7FC0
7FC0
C0C0
8180
0300
0600
0C00
1C00
1800
3800
3000
7000
7000
ENDCHAR

STARTCHAR eight
ENCODING 56
SWIDTH 613 0
DWIDTH 11 0
BBX 10 13 0 0
BITMAP
1F00
3180
60C0
60C0
7080
3F00
1700
6180
C0C0
C0C0
C1C0
6380
3E00
ENDCHAR

STARTCHAR nine
ENCODING 57
SWIDTH 613 0
DWIDTH 11 0
BBX 10 13 0 0
BITMAP
1F00
3980
70C0
60C0
60C0
61C0
36C0
1CC0
0180
0180
C300
E700
7C00
ENDCHAR

STARTCHAR colon
ENCODING 58
SWIDTH 306 0
DWIDTH 6 0
BBX 3 9 1 0
BITMAP
60
60
00
00
00
00
00
C0
C0
ENDCHAR

STARTCHAR semicolon
ENCODING 59
SWIDTH 306 0
DWIDTH 6 0
BBX 3 11 1 -2
BITMAP
60
60
00
00
00
00
00
C0
C0
40
80
ENDCHAR

STARTCHAR less
ENCODING 60
SWIDTH 681 0
DWIDTH 11 0
BBX 9 9 0 0
BITMAP
0180
0700
1C00
7000
C000
7000
1C00
0700
0180
ENDCHAR

STARTCHAR equal
ENCODING 61
SWIDTH 612 0
DWIDTH 11 0
BBX 9 5 0 2
BITMAP
FF80
FF80
0000
FF80
FF80
ENDCHAR

STARTCHAR greater
ENCODING 62
SWIDTH 681 0
DWIDTH 11 0
BBX 9 9 0 0
BITMAP
C000
7000
1C00
0700
0180
0700
1C00
7000
C000
ENDCHAR

STARTCHAR question
ENCODING 63
SWIDTH 537 0
DWIDTH 10 0
BBX 9 13 0 0
BITMAP
3F00
6380
C180
C180
0380
0F00
1C00
1000
3000
3000
0000
6000
6000
ENDCHAR

STARTCHAR at
ENCODING 64
SWIDTH 780 0
DWIDTH 16 0
BBX 13 13 1 0
BITMAP
0F80
3060
6030
4750
8CC8
9CC8
9888
9988
9990
4E60
6010
3060
0F80
ENDCHAR

STARTCHAR A
ENCODING 65
SWIDTH 687 0
DWIDTH 12 0
BBX 13 13 -2 0
BITMAP
0180
0180
0380
02C0
06C0
04C0
0C60
1860
1FE0
3070
3030
6030
F078
ENDCHAR

STARTCHAR B
ENCODING 66
SWIDTH 712 0
DWIDTH 13 0
BBX 12 13 0 0
BITMAP
3FC0
1860
1830
1830
3060
30C0
3FC0
3060
3030
6030
6070
60E0
FF80
ENDCHAR

STARTCHAR C
ENCODING 67
SWIDTH 714 0
DWIDTH 13 0
BBX 12 13 0 0
BITMAP
07D0
1C70
3830
6010
6010
C000
C000
C000
C010
C030
6060
71C0
1F00
ENDCHAR

STARTCHAR D
ENCODING 68
SWIDTH 744 0
DWIDTH 14 0
BBX 13 13 0 0
BITMAP
3FC0
1870
1830
1818
3018
3018
3018
3018
3018
6030
6060
61C0
FF00
ENDCHAR

STARTCHAR E
ENCODING 69
SWIDTH 685 0
DWIDTH 13 0
BBX 12 13 0 0
BITMAP
3FF0
1830
1810
1800
3080
3180
3F00
3300
3100
6020
6060
61C0
FFC0
ENDCHAR

STARTCHAR F
ENCODING 70
SWIDTH 617 0
DWIDTH 11 0
BBX 12 13 0 0
BITMAP
3FF0
1830
1810
1800
3080
3180
3F00
3300
3100
6000
6000
6000
F800
ENDCHAR

STARTCHAR G
ENCODING 71
SWIDTH 759 0
DWIDTH 14 0
BBX 13 13 0 0
BITMAP
07D0
1E70
3830
6010
6000
C000
C000
C0F8
C070
C060
60E0
73E0
1F20
ENDCHAR

STARTCHAR H
ENCODING 72
SWIDTH 788 0
DWIDTH 14 0
BBX 14 13 0 0
BITMAP
3C3C
1818
1818
1818
3030
3030
3FF0
3030
3030
6060
6060
6060
E0F0
ENDCHAR

STARTCHAR I
ENCODING 73
SWIDTH 312 0
DWIDTH 6 0
BBX 6 13 0 0
BITMAP
3C
18
18
18
30
30
30
30
30
60
60
60
F0
ENDCHAR

STARTCHAR J
ENCODING 74
SWIDTH 560 0
DWIDTH 10 0
BBX 11 13 -1 0
BITMAP
01E0
00C0
00C0
00C0
0180
0180
0180
6180
E180
C300
8300
C600
7C00
ENDCHAR

STARTCHAR K
ENCODING 75
SWIDTH 714 0
DWIDTH 13 0
BBX 14 13 0 0
BITMAP
3C7C
1830
1860
18C0
3300
3700
3980
3180
31C0
60E0
6060
6070
F0F8
ENDCHAR

STARTCHAR L
ENCODING 76
SWIDTH 579 0
DWIDTH 11 0
BBX 10 13 0 0
BITMAP
3C00
1800
1800
1800
3000
3000
3000
3000
3000
6040
60C0
6180
FF80
ENDCHAR

STARTCHAR M
ENCODING 77
SWIDTH 855 0
DWIDTH 16 0
BBX 16 13 0 0
BITMAP
3C0F
1C1E
1416
1636
3624
266C
264C
26CC
238C
6318
4318
4318
E27C
ENDCHAR

STARTCHAR N
ENCODING 78
SWIDTH 709 0
DWIDTH 14 0
BBX 15 13 0 0
BITMAP
3C1E
1C0C
1608
1608
3718
2310
2310
2190
21B0
61A0
40E0
60E0
F060
ENDCHAR

STARTCHAR O
ENCODING 79
SWIDTH 759 0
DWIDTH 14 0
BBX 13 13 0 0
BITMAP
07C0
1E70
3830
6018
6018
C018
C018
C018
C030
C070
60E0
73C0
1F00
ENDCHAR

STARTCHAR P
ENCODING 80
SWIDTH 588 0
DWIDTH 11 0
BBX 12 13 -1 0
BITMAP
3F80
1860
1830
1830
3060
30E0
3F80
3000
3000
6000
6000
6000
F000
ENDCHAR

STARTCHAR Q
ENCODING 81
SWIDTH 778 0
DWIDTH 14 0
BBX 13 17 0 -4
BITMAP
07C0
1E70
3830
6018
6018
C018
C018
C018
C030
CF70
6DE0
78C0
1F60
0060
C0E0
F3C0
7F00
ENDCHAR

STARTCHAR R
ENCODING 82
SWIDTH 702 0
DWIDTH 12 0
BBX 12 13 0 0
BITMAP
3FC0
1870
1830
1830
3060
30E0
3F80
3300
3300
6180
6180
60C0
F0E0
ENDCHAR

STARTCHAR S
ENCODING 83
SWIDTH 644 0
DWIDTH 12 0
BBX 11 13 0 0
BITMAP
0FA0
1CE0
3060
3020
3800
1E00
0780
01C0
C060
C060
60E0
71C0
5F00
ENDCHAR

STARTCHAR T
ENCODING 84
SWIDTH 596 0
DWIDTH 13 0
BBX 12 13 1 0
BITMAP
FFF0
E670
8620
0600
0C00
0C00
0C00
0C00
0C00
1800
1800
1800
7C00
ENDCHAR

STARTCHAR U
ENCODING 85
SWIDTH 729 0
DWIDTH 13 0
BBX 13 13 0 0
BITMAP
7838
3010
3010
3030
6020
6020
6020
6060
C040
C040
E0C0
7180
3F00
ENDCHAR

STARTCHAR V
ENCODING 86
SWIDTH 664 0
DWIDTH 12 0
BBX 13 13 0 0
BITMAP
F878
7030
3060
3040
30C0
3880
1980
1900
1B00
1A00
1E00
0C00
0C00
ENDCHAR

STARTCHAR W
ENCODING 87
SWIDTH 943 0
DWIDTH 17 0
BBX 19 13 0 0
BITMAP
F8F1E0
7060C0
306080
306180
30E100
38F300
19B200
193600
1B3400
1A3400
1E3800
0C1800
0C1000
ENDCHAR

STARTCHAR X
ENCODING 88
SWIDTH 691 0
DWIDTH 13 0
BBX 16 13 -1 0
BITMAP
3E1F
0C0C
0E18
0630
0760
03C0
0380
07C0
0CC0
18E0
3060
6070
F0F8
ENDCHAR

STARTCHAR Y
ENCODING 89
SWIDTH 658 0
DWIDTH 12 0
BBX 13 13 0 0
BITMAP
F878
7030
3060
38C0
1980
0F00
0E00
0600
0C00
0C00
0C00
1C00
3E00
ENDCHAR

STARTCHAR Z
ENCODING 90
SWIDTH 586 0
DWIDTH 11 0
BBX 12 13 -1 0
BITMAP
1FF0
38E0
61C0
0380
0300
0600
0E00
1C00
3800
7020
E060
C1C0
FFC0
ENDCHAR

STARTCHAR bracketleft
ENCODING 91
SWIDTH 269 0
DWIDTH 6 0
BBX 7 17 0 -4
BITMAP
1E
18
18
18
30
30
30
30
30
60
60
60
60
C0
C0
C0
F0
ENDCHAR

STARTCHAR backslash
ENCODING 92
SWIDTH 592 0
DWIDTH 10 0
BBX 8 13 1 0
BITMAP
C0
40
60
20
30
10
18
08
0C
04
06
02
03
ENDCHAR

STARTCHAR bracketright
ENCODING 93
SWIDTH 269 0
DWIDTH 6 0
BBX 7 17 -2 -4
BITMAP
1E
06
06
06
0C
0C
0C
0C
18
18
18
18
18
30
30
30
F0
ENDCHAR

STARTCHAR asciicircum
ENCODING 94
SWIDTH 681 0
DWIDTH 11 0
BBX 9 8 0 5
BITMAP
0800
1C00
1400
3600
2200
6300
4100
C180
ENDCHAR

STARTCHAR underscore
ENCODING 95
SWIDTH 718 0
DWIDTH 9 0
BBX 9 1 -1 -3
BITMAP
FF80
ENDCHAR

STARTCHAR quoteleft
ENCODING 96
SWIDTH 272 0
DWIDTH 5 0
BBX 2 4 2 9
BITMAP
40
80
C0
C0
ENDCHAR

STARTCHAR a
ENCODING 97
SWIDTH 615 0
DWIDTH 11 0
BBX 11 9 0 0
BITMAP
0F40
39C0
70C0
60C0
C080
C180
C380
67A0
3CC0
ENDCHAR

STARTCHAR b
ENCODING 98
SWIDTH 592 0
DWIDTH 11 0
BBX 10 13 0 0
BITMAP
7000
3000
3000
2000
6700
6D80
70C0
60C0
C0C0
C0C0
C180
E380
9E00
ENDCHAR

STARTCHAR c
ENCODING 99
SWIDTH 484 0
DWIDTH 9 0
BBX 9 9 0 0
BITMAP
0F00
3180
6180
C000
C000
C000
C000
6300
3C00
ENDCHAR

STARTCHAR d
ENCODING 100
SWIDTH 622 0
DWIDTH 12 0
BBX 11 13 0 0
BITMAP
00E0
0060
0060
0040
1EC0
71C0
60C0
C0C0
C080
C180
C380
65A0
3DC0
ENDCHAR

STARTCHAR e
ENCODING 101
SWIDTH 527 0
DWIDTH 10 0
BBX 10 9 0 0
BITMAP
1F00
7180
61C0
C380
FE00
C000
C000
6180
3E00
ENDCHAR

STARTCHAR f
ENCODING 102
SWIDTH 342 0
DWIDTH 6 0
BBX 13 18 -4 -5
BITMAP
0070
00D8
0180
0180
07E0
0180
0100
0300
0300
0300
0300
0600
0600
0600
0600
0400
CC00
7800
ENDCHAR

STARTCHAR g
ENCODING 103
SWIDTH 562 0
DWIDTH 11 0
BBX 11 14 -1 -5
BITMAP
0FA0
38E0
3060
6060
6040
60C0
61C0
32C0
1EC0
0080
0180
C180
F700
3C00
ENDCHAR

STARTCHAR h
ENCODING 104
SWIDTH 626 0
DWIDTH 12 0
BBX 11 13 0 0
BITMAP
3800
1800
1000
3000
3780
3DC0
30C0
60C0
60C0
6080
C180
C1A0
C0C0
ENDCHAR

STARTCHAR i
ENCODING 105
SWIDTH 285 0
DWIDTH 5 0
BBX 4 12 0 0
BITMAP
30
30
00
70
30
60
60
60
E0
C0
D0
60
ENDCHAR

STARTCHAR j
ENCODING 106
SWIDTH 265 0
DWIDTH 5 0
BBX 10 17 -5 -5
BITMAP
00C0
00C0
0000
03C0
0180
0100
0300
0300
0300
0300
0600
0600
0600
0600
CC00
CC00
7800
ENDCHAR

STARTCHAR k
ENCODING 107
SWIDTH 594 0
DWIDTH 11 0
BBX 10 13 0 0
BITMAP
3800
1800
1800
3000
30C0
33C0
3600
6C00
7C00
7600
E600
C340
C180
ENDCHAR

STARTCHAR l
ENCODING 108
SWIDTH 287 0
DWIDTH 5 0
BBX 5 13 0 0
BITMAP
38
18
18
30
30
30
30
60
60
60
C0
D0
60
ENDCHAR

STARTCHAR m
ENCODING 109
SWIDTH 887 0
DWIDTH 16 0
BBX 14 9 1 0
BITMAP
EE70
7BD8
6318
6318
6318
C630
C630
C634
C618
ENDCHAR

STARTCHAR n
ENCODING 110
SWIDTH 607 0
DWIDTH 10 0
BBX 10 9 0 0
BITMAP
EF00
7980
6180
6180
6180
C300
C300
C340
C180
ENDCHAR

STARTCHAR o
ENCODING 111
SWIDTH 547 0
DWIDTH 11 0
BBX 10 9 0 0
BITMAP
1F00
7180
60C0
C0C0
C0C0
C0C0
C180
6380
3E00
ENDCHAR

STARTCHAR p
ENCODING 112
SWIDTH 593 0
DWIDTH 11 0
BBX 12 13 -2 -4
BITMAP
19C0
0E60
1C30
1830
1830
1030
3860
35C0
3380
3000
6000
6000
F000
ENDCHAR

STARTCHAR q
ENCODING 113
SWIDTH 562 0
DWIDTH 11 0
BBX 11 13 0 -4
BITMAP
0F20
39E0
60C0
60C0
C0C0
C1C0
C380
6780
3D80
0100
0300
0300
0780
ENDCHAR

STARTCHAR r
ENCODING 114
SWIDTH 405 0
DWIDTH 8 0
BBX 8 9 0 0
BITMAP
EF
7B
60
60
60
C0
C0
C0
C0
ENDCHAR

STARTCHAR s
ENCODING 115
SWIDTH 528 0
DWIDTH 10 0
BBX 9 9 0 0
BITMAP
3F00
7180
6180
3800
1E00
C300
C180
6300
3E00
ENDCHAR

STARTCHAR t
ENCODING 116
SWIDTH 346 0
DWIDTH 7 0
BBX 7 13 0 0
BITMAP
08
18
18
30
FE
30
30
30
60
60
60
64
38
ENDCHAR

STARTCHAR u
ENCODING 117
SWIDTH 619 0
DWIDTH 12 0
BBX 10 9 1 0
BITMAP
F180
6180
6180
6180
4300
C300
C300
E740
7D80
ENDCHAR

STARTCHAR v
ENCODING 118
SWIDTH 522 0
DWIDTH 9 0
BBX 8 9 0 0
BITMAP
63
E3
61
61
C1
C2
C2
CC
78
ENDCHAR

STARTCHAR w
ENCODING 119
SWIDTH 861 0
DWIDTH 16 0
BBX 14 9 1 0
BITMAP
F198
318C
618C
6184
4304
C30C
C318
EFF0
78C0
ENDCHAR

STARTCHAR x
ENCODING 120
SWIDTH 542 0
DWIDTH 11 0
BBX 10 9 0 0
BITMAP
30C0
79C0
1B00
1E00
0C00
1C00
3600
E740
C380
ENDCHAR

STARTCHAR y
ENCODING 121
SWIDTH 597 0
DWIDTH 11 0
BBX 10 14 0 -5
BITMAP
78C0
30C0
30C0
3180
2180
6180
6180
7380
3F00
0300
0300
C600
EE00
7C00
ENDCHAR

STARTCHAR z
ENCODING 122
SWIDTH 513 0
DWIDTH 11 0
BBX 10 9 0 0
BITMAP
3FC0
71C0
6380
0700
0C00
3800
7180
E380
FF00
ENDCHAR

STARTCHAR braceleft
ENCODING 123
SWIDTH 374 0
DWIDTH 8 0
BBX 7 17 1 -4
BITMAP
0E
18
30
30
30
30
20
C0
60
60
60
40
C0
C0
C0
60
38
ENDCHAR

STARTCHAR bar
ENCODING 124
SWIDTH 175 0
DWIDTH 4 0
BBX 1 13 1 0
BITMAP
80
80
80
80
80
80
80
80
80
80
80
80
80
ENDCHAR

STARTCHAR braceright
ENCODING 125
SWIDTH 374 0
DWIDTH 7 0
BBX 8 17 -2 -4
BITMAP
1C
06
06
06
06
06
02
01
02
04
0C
0C
0C
0C
08
10
E0
ENDCHAR

STARTCHAR asciitilde
ENCODING 126
SWIDTH 613 0
DWIDTH 11 0
BBX 9 3 0 3
BITMAP
7080
DD80
8700
ENDCHAR

STARTCHAR exclamdown
ENCODING 161
SWIDTH 329 0
DWIDTH 6 0
BBX 5 14 0 -5
BITMAP
18
18
00
10
10
30
30
30
60
60
60
C0
C0
C0
ENDCHAR

STARTCHAR cent
ENCODING 162
SWIDTH 613 0
DWIDTH 11 0
BBX 8 15 2 -1
BITMAP
02
02
04
3E
6B
6B
C8
C8
D0
D0
76
3C
10
20
20
ENDCHAR

STARTCHAR sterling
ENCODING 163
SWIDTH 613 0
DWIDTH 11 0
BBX 11 13 -1 0
BITMAP
03C0
0660
0C60
0C00
0C00
3FC0
0C00
0C00
0C00
0CC0
7C20
9FE0
73C0
ENDCHAR

STARTCHAR currency
ENCODING 164
SWIDTH 613 0
DWIDTH 11 0
BBX 9 9 1 1
BITMAP
C180
FF80
6300
4100
4100
4100
6300
FF80
C180
ENDCHAR

STARTCHAR yen
ENCODING 165
SWIDTH 615 0
DWIDTH 11 0
BBX 13 13 0 0
BITMAP
7CF8
3060
30C0
1980
7FE0
1B00
0E00
FFC0
0C00
0C00
1800
1800
7E00
ENDCHAR

STARTCHAR brokenbar
ENCODING 166
SWIDTH 175 0
DWIDTH 4 0
BBX 1 13 1 0
BITMAP
80
80
80
80
80
00
00
00
80
80
80
80
80
ENDCHAR

STARTCHAR section
ENCODING 167
SWIDTH 613 0
DWIDTH 12 0
BBX 11 15 0 -2
BITMAP
1FC0
38E0
3060
3C00
1F00
3780
61C0
60C0
78C0
3F80
0F00
0380
C180
E380
7F00
ENDCHAR

STARTCHAR dieresis
ENCODING 168
SWIDTH 418 0
DWIDTH 8 0
BBX 5 2 2 10
BITMAP
88
88
ENDCHAR

STARTCHAR copyright
ENCODING 169
SWIDTH 837 0
DWIDTH 16 0
BBX 13 13 1 0
BITMAP
0F80
38E0
6030
4710
CF98
9888
9808
9888
CF98
4710
6030
38E0
0F80
ENDCHAR

STARTCHAR ordfeminine
ENCODING 170
SWIDTH 409 0
DWIDTH 8 0
BBX 6 7 0 6
BITMAP
3C
6C
48
58
2C
00
F8
ENDCHAR

STARTCHAR guillemotleft
ENCODING 171
SWIDTH 295 0
DWIDTH 7 0
BBX 6 6 0 2
BITMAP
24
6C
D8
90
D8
48
ENDCHAR

STARTCHAR logicalnot
ENCODING 172
SWIDTH 787 0
DWIDTH 11 0
BBX 10 6 0 1
BITMAP
FFC0
FFC0
00C0
00C0
00C0
00C0
ENDCHAR

STARTCHAR hyphen
ENCODING 173
SWIDTH 312 0
DWIDTH 6 0
BBX 5 2 0 4
BITMAP
F8
F8
ENDCHAR

STARTCHAR registered
ENCODING 174
SWIDTH 840 0
DWIDTH 16 0
BBX 13 13 1 0
BITMAP
0F80
38E0
6030
5F90
CDD8
8CC8
8F88
8D88
CDD8
5ED0
6030
38E0
0F80
ENDCHAR

STARTCHAR macron
ENCODING 175
SWIDTH 438 0
DWIDTH 8 0
BBX 6 1 1 11
BITMAP
FC
ENDCHAR

STARTCHAR degree
ENCODING 176
SWIDTH 400 0
DWIDTH 7 0
BBX 6 6 0 7
BITMAP
78
CC
84
84
CC
78
ENDCHAR

STARTCHAR plusminus
ENCODING 177
SWIDTH 613 0
DWIDTH 11 0
BBX 10 9 0 0
BITMAP
0C00
0C00
FFC0
FFC0
0C00
0C00
0000
FFC0
FFC0
ENDCHAR

STARTCHAR twosuperior
ENCODING 178
SWIDTH 616 0
DWIDTH 7 0
BBX 6 8 0 5
BITMAP
78
CC
8C
18
30
60
CC
F8
ENDCHAR

STARTCHAR threesuperior
ENCODING 179
SWIDTH 613 0
DWIDTH 7 0
BBX 7 8 0 5
BITMAP
3C
66
0C
38
0C
8C
D8
70
ENDCHAR

STARTCHAR acute
ENCODING 180
SWIDTH 320 0
DWIDTH 6 0
BBX 4 3 2 10
BITMAP
30
60
80
ENDCHAR

STARTCHAR mu
ENCODING 181
SWIDTH 619 0
DWIDTH 12 0
BBX 12 14 -1 -5
BITMAP
3C60
1860
1860
1860
10C0
30C0
30C0
39D0
7F60
6000
6000
E000
E000
C000
ENDCHAR

STARTCHAR paragraph
ENCODING 182
SWIDTH 613 0
DWIDTH 12 0
BBX 10 13 1 0
BITMAP
1FC0
7D80
FD80
F980
FB00
FB00
7B00
1B00
1300
3600
3600
3600
7F00
ENDCHAR

STARTCHAR periodcentered
ENCODING 183
SWIDTH 306 0
DWIDTH 6 0
BBX 2 2 1 4
BITMAP
C0
C0
ENDCHAR

STARTCHAR cedilla
ENCODING 184
SWIDTH 324 0
DWIDTH 6 0
BBX 4 4 1 -4
BITMAP
20
30
90
60
ENDCHAR

STARTCHAR onesuperior
ENCODING 185
SWIDTH 613 0
DWIDTH 7 0
BBX 4 8 1 5
BITMAP
10
70
30
30
60
60
60
F0
ENDCHAR

STARTCHAR ordmasculine
ENCODING 186
SWIDTH 409 0
DWIDTH 8 0
BBX 6 7 0 6
BITMAP
18
2C
44
68
30
00
F8
ENDCHAR

STARTCHAR guillemotright
ENCODING 187
SWIDTH 295 0
DWIDTH 7 0
BBX 6 6 0 2
BITMAP
48
6C
24
6C
D8
90
ENDCHAR

STARTCHAR onequarter
ENCODING 188
SWIDTH 20 0
DWIDTH 16 0
BBX 13 13 1 0
BITMAP
1020
7060
3040
3080
6180
6118
6238
F450
0CB0
0930
13F8
3060
20F0
ENDCHAR

STARTCHAR onehalf
ENCODING 189
SWIDTH 20 0
DWIDTH 16 0
BBX 14 13 1 0
BITMAP
1020
7060
3040
3080
6180
6178
62CC
F48C
0C18
0830
1060
30CC
20F8
ENDCHAR

STARTCHAR threequarters
ENCODING 190
SWIDTH 20 0
DWIDTH 16 0
BBX 14 13 0 0
BITMAP
3C10
6630
0C20
3840
0CC0
8C8C
D91C
7228
0658
0498
09FC
1830
1078
ENDCHAR

STARTCHAR questiondown
ENCODING 191
SWIDTH 537 0
DWIDTH 10 0
BBX 9 14 0 -4
BITMAP
0300
0300
0000
0600
0600
0400
0C00
3800
6000
C000
C180
C180
E300
7E00
ENDCHAR

STARTCHAR Agrave
ENCODING 192
SWIDTH 687 0
DWIDTH 12 0
BBX 13 14 -2 0
BITMAP
0600
0300
0080
0000
0180
0180
03C0
06C0
0C60
0FE0
1860
3030
6030
F078
ENDCHAR

STARTCHAR Aacute
ENCODING 193
SWIDTH 687 0
DWIDTH 12 0
BBX 13 14 -2 0
BITMAP
00C0
0180
0200
0000
0180
0180
03C0
06C0
0C60
0FE0
1860
3030
6030
F078
ENDCHAR

STARTCHAR Acircumflex
ENCODING 194
SWIDTH 687 0
DWIDTH 12 0
BBX 13 14 -2 0
BITMAP
0180
02C0
0440
0000
0180
0180
03C0
06C0
0C60
0FE0
1860
3030
6030
F078
ENDCHAR

STARTCHAR Atilde
ENCODING 195
SWIDTH 687 0
DWIDTH 12 0
BBX 13 13 -2 0
BITMAP
0390
04E0
0000
0180
0180
03C0
06C0
0C60
0FE0
1860
3030
6030
F078
ENDCHAR

STARTCHAR Adieresis
ENCODING 196
SWIDTH 687 0
DWIDTH 12 0
BBX 13 13 -2 0
BITMAP
0220
0220
0000
0180
0180
03C0
06C0
0C60
0FE0
1860
3030
6030
F078
ENDCHAR

STARTCHAR Aring
ENCODING 197
SWIDTH 687 0
DWIDTH 12 0
BBX 13 14 -2 0
BITMAP
0180
0240
0240
0180
0180
0180
03C0
06C0
0C60
0FE0
1860
3030
6030
F078
ENDCHAR

STARTCHAR AE
ENCODING 198
SWIDTH 1216 0
DWIDTH 23 0
BBX 24 13 -2 0
BITMAP
0003FF
000783
000D81
001980
003308
006318
00FFF0
018330
030310
060602
0C0606
38061C
FC0FFC
ENDCHAR

STARTCHAR Ccedilla
ENCODING 199
SWIDTH 714 0
DWIDTH 13 0
BBX 12 17 0 -4
BITMAP
07D0
1C70
3830
6010
6010
C000
C000
C000
C010
C030
6060
71C0
1F00
0200
0300
0900
0600
ENDCHAR

STARTCHAR Egrave
ENCODING 200
SWIDTH 685 0
DWIDTH 13 0
BBX 12 14 0 0
BITMAP
0C00
0600
0100
0000
3FF0
1830
1890
3180
3F00
3300
6100
6060
61C0
FFC0
ENDCHAR

STARTCHAR Eacute
ENCODING 201
SWIDTH 685 0
DWIDTH 13 0
BBX 12 14 0 0
BITMAP
0180
0300
0400
0000
3FF0
1830
1890
3180
3F00
3300
6100
6060
61C0
FFC0
ENDCHAR

STARTCHAR Ecircumflex
ENCODING 202
SWIDTH 685 0
DWIDTH 13 0
BBX 12 14 0 0
BITMAP
0180
02C0
0440
0000
3FF0
1830
1890
3180
3F00
3300
6100
6060
61C0
FFC0
ENDCHAR

STARTCHAR Edieresis
ENCODING 203
SWIDTH 685 0
DWIDTH 13 0
BBX 12 13 0 0
BITMAP
0220
0220
0000
3FF0
1830
1890
3180
3F00
3300
6100
6060
61C0
FFC0
ENDCHAR

STARTCHAR Igrave
ENCODING 204
SWIDTH 312 0
DWIDTH 6 0
BBX 5 14 0 0
BITMAP
60
30
08
00
78
30
30
30
30
60
60
60
60
F0
ENDCHAR

STARTCHAR Iacute
ENCODING 205
SWIDTH 312 0
DWIDTH 6 0
BBX 6 14 0 0
BITMAP
0C
18
20
00
78
30
30
30
30
60
60
60
60
F0
ENDCHAR

STARTCHAR Icircumflex
ENCODING 206
SWIDTH 312 0
DWIDTH 6 0
BBX 7 14 0 0
BITMAP
0C
16
22
00
78
30
30
30
30
60
60
60
60
F0
ENDCHAR

STARTCHAR Idieresis
ENCODING 207
SWIDTH 312 0
DWIDTH 6 0
BBX 6 14 0 0
BITMAP
44
44
00
00
78
30
30
30
30
60
60
60
60
F0
ENDCHAR

STARTCHAR Eth
ENCODING 208
SWIDTH 744 0
DWIDTH 14 0
BBX 13 13 0 0
BITMAP
3FC0
1870
1830
1818
3018
3018
FF18
3018
3018
6030
6060
61C0
FF00
ENDCHAR

STARTCHAR Ntilde
ENCODING 209
SWIDTH 709 0
DWIDTH 14 0
BBX 15 13 0 0
BITMAP
0390
04E0
0000
3C1E
1C0C
1608
3318
2310
2190
61B0
40E0
40E0
F060
ENDCHAR

STARTCHAR Ograve
ENCODING 210
SWIDTH 759 0
DWIDTH 14 0
BBX 13 14 0 0
BITMAP
0C00
0600
0100
0000
07C0
1C70
3030
6018
C018
C018
C030
6060
71C0
1F00
ENDCHAR

STARTCHAR Oacute
ENCODING 211
SWIDTH 759 0
DWIDTH 14 0
BBX 13 14 0 0
BITMAP
0180
0300
0400
0000
07C0
1C70
3030
6018
C018
C018
C030
6060
71C0
1F00
ENDCHAR

STARTCHAR Ocircumflex
ENCODING 212
SWIDTH 759 0
DWIDTH 14 0
BBX 13 14 0 0
BITMAP
0180
02C0
0440
0000
07C0
1C70
3030
6018
C018
C018
C030
6060
71C0
1F00
ENDCHAR

STARTCHAR Otilde
ENCODING 213
SWIDTH 759 0
DWIDTH 14 0
BBX 13 13 0 0
BITMAP
0720
09C0
0000
07C0
1C70
3030
6018
C018
C018
C030
6060
71C0
1F00
ENDCHAR

STARTCHAR Odieresis
ENCODING 214
SWIDTH 759 0
DWIDTH 14 0
BBX 13 13 0 0
BITMAP
0220
0220
0000
07C0
1C70
3030
6018
C018
C018
C030
6060
71C0
1F00
ENDCHAR

STARTCHAR multiply
ENCODING 215
SWIDTH 613 0
DWIDTH 11 0
BBX 10 9 0 0
BITMAP
4080
E1C0
7380
3F00
1E00
3F00
7380
E1C0
4080
ENDCHAR

STARTCHAR Oslash
ENCODING 216
SWIDTH 758 0
DWIDTH 14 0
BBX 13 15 0 -1
BITMAP
0030
07E0
1E70
38F0
6198
6198
C318
C618
C618
CC30
D870
78E0
73C0
7F00
C000
ENDCHAR

STARTCHAR Ugrave
ENCODING 217
SWIDTH 729 0
DWIDTH 13 0
BBX 12 14 0 0
BITMAP
1800
0C00
0200
0000
F070
6020
6020
6020
C060
C040
C040
E0C0
7180
3F00
ENDCHAR

STARTCHAR Uacute
ENCODING 218
SWIDTH 729 0
DWIDTH 13 0
BBX 12 14 0 0
BITMAP
0180
0300
0400
0000
F070
6020
6020
6020
C060
C040
C040
E0C0
7180
3F00
ENDCHAR

STARTCHAR Ucircumflex
ENCODING 219
SWIDTH 729 0
DWIDTH 13 0
BBX 12 14 0 0
BITMAP
0180
02C0
0440
0000
F070
6020
6020
6020
C060
C040
C040
E0C0
7180
3F00
ENDCHAR

STARTCHAR Udieresis
ENCODING 220
SWIDTH 729 0
DWIDTH 13 0
BBX 12 13 0 0
BITMAP
0440
0440
0000
F070
6020
6020
6020
C060
C040
C040
E0C0
7180
3F00
ENDCHAR

STARTCHAR Yacute
ENCODING 221
SWIDTH 658 0
DWIDTH 12 0
BBX 13 14 0 0
BITMAP
00C0
0180
0200
0000
F878
7060
30C0
1980
1B00
0E00
0C00
0C00
1C00
3E00
ENDCHAR

STARTCHAR Thorn
ENCODING 222
SWIDTH 588 0
DWIDTH 11 0
BBX 12 13 -1 0
BITMAP
3C00
1800
1800
1F80
3060
3030
3030
3060
30E0
7F80
6000
6000
F000
ENDCHAR

STARTCHAR germandbls
ENCODING 223
SWIDTH 623 0
DWIDTH 12 0
BBX 14 15 -3 -2
BITMAP
0078
00CC
018C
030C
0F38
0360
0638
061C
060C
0E0C
0C1C
0DB8
0C70
1800
F000
ENDCHAR

STARTCHAR agrave
ENCODING 224
SWIDTH 615 0
DWIDTH 11 0
BBX 11 13 0 0
BITMAP
1800
0C00
0200
0000
0F40
39C0
70C0
60C0
C080
C180
C380
67A0
3CC0
ENDCHAR

STARTCHAR aacute
ENCODING 225
SWIDTH 615 0
DWIDTH 11 0
BBX 11 13 0 0
BITMAP
0300
0600
0800
0000
0F40
39C0
70C0
60C0
C080
C180
C380
67A0
3CC0
ENDCHAR

STARTCHAR acircumflex
ENCODING 226
SWIDTH 615 0
DWIDTH 11 0
BBX 11 13 0 0
BITMAP
0600
0B00
1100
0000
0F40
39C0
70C0
60C0
C080
C180
C380
67A0
3CC0
ENDCHAR

STARTCHAR atilde
ENCODING 227
SWIDTH 615 0
DWIDTH 11 0
BBX 11 12 0 0
BITMAP
1C80
2700
0000
0F40
39C0
70C0
60C0
C080
C180
C380
67A0
3CC0
ENDCHAR

STARTCHAR adieresis
ENCODING 228
SWIDTH 615 0
DWIDTH 11 0
BBX 11 12 0 0
BITMAP
0480
0480
0000
0F40
39C0
70C0
60C0
C080
C180
C380
67A0
3CC0
ENDCHAR

STARTCHAR aring
ENCODING 229
SWIDTH 615 0
DWIDTH 11 0
BBX 11 14 0 0
BITMAP
0600
0900
0900
0600
0000
0F40
39C0
70C0
60C0
C080
C180
C380
67A0
3CC0
ENDCHAR

STARTCHAR ae
ENCODING 230
SWIDTH 859 0
DWIDTH 17 0
BBX 17 9 0 0
BITMAP
1F3E00
31E300
30C380
00C700
1FFC00
618000
C18000
E3C300
7E7C00
ENDCHAR

STARTCHAR ccedilla
ENCODING 231
SWIDTH 484 0
DWIDTH 9 0
BBX 9 13 0 -4
BITMAP
0F00
3180
6180
C000
C000
C000
C000
6300
3C00
0800
0C00
2400
1800
ENDCHAR

STARTCHAR egrave
ENCODING 232
SWIDTH 527 0
DWIDTH 10 0
BBX 10 13 0 0
BITMAP
1800
0C00
0200
0000
1F00
7180
61C0
C380
FE00
C000
C000
6180
3E00
ENDCHAR

STARTCHAR eacute
ENCODING 233
SWIDTH 527 0
DWIDTH 10 0
BBX 10 13 0 0
BITMAP
0600
0C00
1000
0000
1F00
7180
61C0
C380
FE00
C000
C000
6180
3E00
ENDCHAR

STARTCHAR ecircumflex
ENCODING 234
SWIDTH 527 0
DWIDTH 10 0
BBX 10 13 0 0
BITMAP
0600
0B00
1100
0000
1F00
7180
61C0
C380
FE00
C000
C000
6180
3E00
ENDCHAR

STARTCHAR edieresis
ENCODING 235
SWIDTH 527 0
DWIDTH 10 0
BBX 10 12 0 0
BITMAP
0900
0900
0000
1F00
7180
61C0
C380
FE00
C000
C000
6180
3E00
ENDCHAR

STARTCHAR igrave
ENCODING 236
SWIDTH 285 0
DWIDTH 5 0
BBX 4 13 0 0
BITMAP
C0
60
10
00
70
30
60
60
60
E0
C0
D0
60
ENDCHAR

STARTCHAR iacute
ENCODING 237
SWIDTH 285 0
DWIDTH 5 0
BBX 5 13 0 0
BITMAP
18
30
40
00
70
30
60
60
60
E0
C0
D0
60
ENDCHAR

STARTCHAR icircumflex
ENCODING 238
SWIDTH 285 0
DWIDTH 5 0
BBX 5 13 0 0
BITMAP
30
58
88
00
70
30
60
60
60
E0
C0
D0
60
ENDCHAR

STARTCHAR idieresis
ENCODING 239
SWIDTH 285 0
DWIDTH 5 0
BBX 5 12 0 0
BITMAP
28
28
00
70
30
60
60
60
E0
C0
D0
60
ENDCHAR

STARTCHAR eth
ENCODING 240
SWIDTH 547 0
DWIDTH 11 0
BBX 10 13 0 0
BITMAP
1980
0E00
1E00
6300
1F80
7180
60C0
C0C0
C0C0
C0C0
C180
6380
3E00
ENDCHAR

STARTCHAR ntilde
ENCODING 241
SWIDTH 607 0
DWIDTH 10 0
BBX 10 12 0 0
BITMAP
3900
4E00
0000
EF00
7980
6180
6180
6180
C300
C300
C340
C180
ENDCHAR

STARTCHAR ograve
ENCODING 242
SWIDTH 547 0
DWIDTH 11 0
BBX 10 13 0 0
BITMAP
1800
0C00
0200
0000
1F00
7180
60C0
C0C0
C0C0
C0C0
C180
6380
3E00
ENDCHAR

STARTCHAR oacute
ENCODING 243
SWIDTH 547 0
DWIDTH 11 0
BBX 10 13 0 0
BITMAP
0600
0C00
1000
0000
1F00
7180
60C0
C0C0
C0C0
C0C0
C180
6380
3E00
ENDCHAR

STARTCHAR ocircumflex
ENCODING 244
SWIDTH 547 0
DWIDTH 11 0
BBX 10 13 0 0
BITMAP
0600
0B00
1100
0000
1F00
7180
60C0
C0C0
C0C0
C0C0
C180
6380
3E00
ENDCHAR

STARTCHAR otilde
ENCODING 245
SWIDTH 547 0
DWIDTH 11 0
BBX 10 12 0 0
BITMAP
1C80
2700
0000
1F00
7180
60C0
C0C0
C0C0
C0C0
C180
6380
3E00
ENDCHAR

STARTCHAR odieresis
ENCODING 246
SWIDTH 547 0
DWIDTH 11 0
BBX 10 12 0 0
BITMAP
0900
0900
0000
1F00
7180
60C0
C0C0
C0C0
C0C0
C180
6380
3E00
ENDCHAR

STARTCHAR divide
ENCODING 247
SWIDTH 613 0
DWIDTH 11 0
BBX 10 8 0 1
BITMAP
0C00
0C00
0000
FFC0
FFC0
0000
0C00
0C00
ENDCHAR

STARTCHAR oslash
ENCODING 248
SWIDTH 546 0
DWIDTH 11 0
BBX 10 11 0 -1
BITMAP
00C0
1F80
7180
63C0
C6C0
CCC0
D9C0
F180
6380
FE00
8000
ENDCHAR

STARTCHAR ugrave
ENCODING 249
SWIDTH 619 0
DWIDTH 12 0
BBX 10 13 1 0
BITMAP
1800
0C00
0200
0000
F180
6180
6180
6180
4300
C300
C300
E740
7D80
ENDCHAR

STARTCHAR uacute
ENCODING 250
SWIDTH 619 0
DWIDTH 12 0
BBX 10 13 1 0
BITMAP
0600
0C00
1000
0000
F180
6180
6180
6180
4300
C300
C300
E740
7D80
ENDCHAR

STARTCHAR ucircumflex
ENCODING 251
SWIDTH 619 0
DWIDTH 12 0
BBX 10 13 1 0
BITMAP
0600
0B00
1100
0000
F180
6180
6180
6180
4300
C300
C300
E740
7D80
ENDCHAR

STARTCHAR udieresis
ENCODING 252
SWIDTH 619 0
DWIDTH 12 0
BBX 10 12 1 0
BITMAP
1200
1200
0000
F180
6180
6180
6180
4300
C300
C300
E740
7D80
ENDCHAR

STARTCHAR yacute
ENCODING 253
SWIDTH 597 0
DWIDTH 11 0
BBX 10 18 0 -5
BITMAP
0180
0300
0400
0000
78C0
30C0
30C0
3180
2180
6180
6180
7380
3F00
0300
0300
C600
EE00
7C00
ENDCHAR

STARTCHAR thorn
ENCODING 254
SWIDTH 593 0
DWIDTH 11 0
BBX 12 17 -2 -4
BITMAP
1C00
0C00
0C00
0800
09C0
1E60
1C30
1830
1830
1030
3860
35C0
3380
3000
6000
6000
F000
ENDCHAR

STARTCHAR ydieresis
ENCODING 255
SWIDTH 597 0
DWIDTH 11 0
BBX 10 17 0 -5
BITMAP
0480
0480
0000
78C0
30C0
30C0
3180
2180
6180
6180
7380
3F00
0300
0300
C600
EE00
7C00
ENDCHAR
ENDFONT
